<svg xmlns="http://www.w3.org/2000/svg" width="36" height="36" id="call"><g transform="translate(0 -1016.362)"><rect width="36" height="36" y="1016.362" fill="#f8b84e" rx="6" ry="6"></rect><g transform="translate(2.507 -2)"><path d="M5.492 1036.35c-.037 0-.075.01-.11.02H.583c-.033-.01-.067-.01-.101-.01a.5.5 0 0 0-.483.515c.141 7.895 6.495 14.27 14.375 14.46a.5.5 0 0 0 .615-.401l.002-.01a.474.474 0 0 0 .006-.117v-4.95a.5.5 0 0 0-.507-.507h-.057a5.091 5.091 0 0 1-3.065-.867.47.47 0 0 0-.048-.03.508.508 0 0 0-.309-.093.507.507 0 0 0-.43.275l-.02.04h-.001l-.729 1.413a10.667 10.667 0 0 1-4.556-4.568l1.463-.75a.5.5 0 0 0 .181-.74h-.002a5.088 5.088 0 0 1-.896-3.145.5.5 0 0 0-.53-.545z" color="#000" font-family="sans-serif" font-weight="400" opacity=".15" overflow="visible" style="line-height:normal;text-indent:0;text-align:start;text-decoration-line:none;text-decoration-style:solid;text-decoration-color:#000;text-transform:none;block-progression:tb;isolation:auto;mix-blend-mode:normal"></path><circle cx="16" cy="1036.362" r="13" fill="#2b4255"></circle><path fill="#25b39e" style="line-height:normal;text-indent:0;text-align:start;text-decoration-line:none;text-decoration-style:solid;text-decoration-color:#000;text-transform:none;block-progression:tb;isolation:auto;mix-blend-mode:normal" d="M6.506 15.988a.5.5 0 0 0-.111.02H1.598a.5.5 0 0 0-.584.51c.14 7.895 6.494 14.269 14.375 14.459a.5.5 0 0 0 .615-.4l.002-.007a.518.518 0 0 0 .006-.117v-4.95a.5.5 0 0 0-.565-.503 5.09 5.09 0 0 1-3.064-.867.5.5 0 0 0-.049-.03.5.5 0 0 0-.309-.093v.002a.5.5 0 0 0-.43.275l-.019.041h-.002l-.728 1.412a10.668 10.668 0 0 1-4.557-4.568l1.463-.75a.5.5 0 0 0 .182-.74l-.002-.004a5.088 5.088 0 0 1-.896-3.145.5.5 0 0 0-.53-.545z" color="#000" font-family="sans-serif" font-weight="400" overflow="visible" transform="translate(0 1020.362)"></path><path fill="none" stroke="#34485c" stroke-dashoffset="1.5" stroke-linecap="round" stroke-linejoin="round" d="M1.724 1033.896a14.486 14.486 0 0 1 15.084-12.004A14.486 14.486 0 0 1 30.46 1035.5a14.486 14.486 0 0 1-11.955 15.123" color="#000" overflow="visible" style="isolation:auto;mix-blend-mode:normal"></path><path fill-rule="evenodd" d="M21.504 1035.374a.5.5 0 0 1 .344.15l1.933 1.936.016.014a.5.5 0 0 1 .015.012.5.5 0 0 1 .006 0 .5.5 0 0 1 .002 0 .5.5 0 0 1 .002 0 .5.5 0 0 1 .033.03.5.5 0 0 1 .034.038.5.5 0 0 1 .01.012.5.5 0 0 1 .019.027.5.5 0 0 1 .047.09.5.5 0 0 1 .016.045.5.5 0 0 1-.174.533l-1.96 1.959a.5.5 0 0 1-.708-.707l1.146-1.147h-4.79a.5.5 0 1 1 0-1h4.79l-1.146-1.146a.5.5 0 0 1 .365-.858z" color="#000" font-family="sans-serif" font-weight="400" opacity=".15" overflow="visible" style="line-height:normal;text-indent:0;text-align:start;text-decoration-line:none;text-decoration-style:solid;text-decoration-color:#000;text-transform:none;block-progression:tb;isolation:auto;mix-blend-mode:normal"></path><path fill="none" stroke="#25b39e" stroke-linecap="round" stroke-linejoin="round" d="M16.506 1037.85h6m-2-2 2 2m-2 2 2-2"></path><path fill-rule="evenodd" style="line-height:normal;text-indent:0;text-align:start;text-decoration-line:none;text-decoration-style:solid;text-decoration-color:#000;text-transform:none;block-progression:tb;isolation:auto;mix-blend-mode:normal" d="M10.496 1030.356a.5.5 0 0 0-.344.15l-1.933 1.936-.016.014a.5.5 0 0 0-.016.012.5.5 0 0 0-.005 0 .5.5 0 0 0-.002 0 .5.5 0 0 0-.002 0 .5.5 0 0 0-.033.031.5.5 0 0 0-.034.037.5.5 0 0 0-.01.012.5.5 0 0 0-.019.027.5.5 0 0 0-.047.09.5.5 0 0 0-.016.045.5.5 0 0 0 .174.533l1.96 1.96a.5.5 0 1 0 .708-.708l-1.146-1.146h4.79a.5.5 0 1 0 0-1h-4.79l1.146-1.147a.5.5 0 0 0-.365-.857z" color="#000" font-family="sans-serif" font-weight="400" opacity=".15" overflow="visible"></path><path fill="none" stroke="#f05542" stroke-linecap="round" stroke-linejoin="round" d="M15.538 1032.86h-6m2-2-2 2m2 2-2-2"></path></g></g></svg>